<svg xmlns="http://www.w3.org/2000/svg" viewBox="0 0 24 24" fill="currentColor" role="img" aria-label="Apple"><path d="M17.05 12.04c-.02-2.07 1.69-3.06 1.77-3.11-.97-1.41-2.47-1.6-3-1.62-1.27-.13-2.49.75-3.14.75-.65 0-1.65-.73-2.71-.71-1.39.02-2.68.81-3.39 2.05-1.45 2.51-.37 6.22 1.04 8.26.69 1 1.51 2.12 2.58 2.08 1.04-.04 1.43-.67 2.69-.67 1.25 0 1.61.67 2.71.65 1.12-.02 1.83-1.02 2.51-2.02.79-1.16 1.12-2.28 1.13-2.34-.02-.01-2.17-.83-2.19-3.3M15.2 5.36c.57-.69.96-1.65.85-2.61-.83.03-1.83.55-2.42 1.24-.53.61-.99 1.59-.87 2.53.92.07 1.87-.47 2.44-1.16"/></svg>
