<svg xmlns="http://www.w3.org/2000/svg" viewBox="0 0 24 24" role="img" aria-label="Google Play"><path d="M3.6 2.3c-.24.26-.38.66-.38 1.18v17.04c0 .52.14.92.39 1.17l.06.06 9.54-9.54v-.22L3.66 2.24z" fill="#00D2FF"/><path d="M16.4 15.55l-3.18-3.18v-.22l3.18-3.18.07.04 3.77 2.14c1.08.61 1.08 1.62 0 2.24l-3.77 2.14z" fill="#FFCE00"/><path d="M16.47 15.51L13.22 12.26 3.6 21.7c.36.38.94.42 1.6.05l11.27-6.24" fill="#FF3B30"/><path d="M16.47 8.97L5.2 2.74c-.66-.38-1.24-.33-1.6.05l9.62 9.43z" fill="#00C853"/></svg>
